<svg
      xmlns="http://www.w3.org/2000/svg"
      x="0px"
      y="0px"
      width="30"
      height="30"
      viewBox="0 0 172 172"
      style="fill: #000000"
    >
      <g
        fill="none"
        fill-rule="nonzero"
        stroke="none"
        stroke-width="1"
        stroke-linecap="butt"
        stroke-linejoin="miter"
        stroke-miterlimit="10"
        stroke-dasharray=""
        stroke-dashoffset="0"
        font-family="none"
        font-weight="none"
        font-size="none"
        text-anchor="none"
        style="mix-blend-mode: normal"
      >
        <path d="M0,172v-172h172v172z" fill="none"></path>
        <g fill="#b609f6">
          <path
            d="M86,11.46667c-28.66667,0 -63.06667,22.93333 -63.06667,63.06667v22.93333v5.73333c0,8.69556 3.80807,14.88691 7.69297,18.2862c2.36876,2.07267 3.36026,2.10522 4.94948,2.73229c2.08312,5.38337 15.39935,36.31484 50.42422,36.31484c0.19537,0 0.37689,-0.02034 0.57109,-0.02239c0.01493,0.00006 0.02986,0.00006 0.04479,0c13.13149,-0.15028 23.60367,-4.97132 31.62292,-11.44427h-32.2388c-30.57778,0 -40.42448,-30.48073 -40.42448,-30.48073l-0.99662,-2.98985l-3.05703,-0.76146c0,0 -1.49975,-0.35346 -3.34818,-1.97083c-1.84843,-1.61738 -3.7737,-4.02603 -3.7737,-9.6638v-5.73333h5.73333c0,-40.13333 57.33333,-11.46667 74.53333,-51.6c0,0 17.2,15.824 17.2,51.6v17.2h4.69192c-2.34832,6.69123 -8.62012,11.46667 -16.15859,11.46667h-23.45964c-1.18502,-3.3325 -4.33626,-5.73333 -8.0737,-5.73333h-5.73333c-4.7472,0 -8.6,3.8528 -8.6,8.6c0,4.7472 3.8528,8.6 8.6,8.6h5.73333c0.51307,0 1.01208,-0.0705 1.50052,-0.15677c0.44744,0.10687 0.90612,0.15951 1.36614,0.15677h28.66667c14.28383,0 26.18196,-10.60507 28.29714,-24.32188c3.6167,-1.92839 6.10286,-5.69134 6.10286,-10.07812v-5.73333c0,-4.23662 -2.31837,-7.89129 -5.73333,-9.87656v-13.05677c0,-22.93333 -11.46667,-51.6 -34.4,-51.6c0,0 -5.73333,-11.46667 -28.66667,-11.46667z"
          ></path>
        </g>
      </g>
    </svg>