<svg xmlns="http://www.w3.org/2000/svg" x="0px" y="0px"
width="30" height="30"
viewBox="0 0 172 172"
style=" fill:#000000;"><g fill="none" fill-rule="nonzero" stroke="none" stroke-width="1" stroke-linecap="butt" stroke-linejoin="miter" stroke-miterlimit="10" stroke-dasharray="" stroke-dashoffset="0" font-family="none" font-weight="none" font-size="none" text-anchor="none" style="mix-blend-mode: normal"><path d="M0,172v-172h172v172z" fill="none"></path><g fill="#1a83f5"><path d="M86.0112,11.48906c-1.43333,0 -2.86487,0.51466 -3.89687,1.48932v0.05599l-60.60313,33.02266c-0.91733,0.22933 -1.77554,0.69069 -2.46354,1.32135v0.05599c-1.204,1.08933 -1.83646,2.58269 -1.83646,4.18802c0,3.15333 2.58,5.73333 5.73333,5.73333v80.26667c0,6.30667 5.10267,11.46667 11.46667,11.46667h78.60938v-0.34714c0,-11.352 6.41417,-21.10538 15.5875,-25.52005c-5.04533,-5.16 -8.14089,-12.26933 -8.14089,-20.06667c0,-15.824 12.78667,-28.60933 28.61067,-28.66667v-17.13282c3.15333,0 5.73333,-2.58 5.73333,-5.73333c0,-1.60533 -0.68979,-3.09869 -1.83646,-4.18802v-0.05599c-0.688,-0.63067 -1.54621,-1.09202 -2.46354,-1.32135l-60.60312,-33.02266v-0.05599c-1.08933,-0.97467 -2.46354,-1.48932 -3.89688,-1.48932zM80.27786,48.75573h11.46667v9.1151c10.148,1.77733 17.02397,8.41994 17.36797,17.53594h-11.80261c-0.63067,-4.75867 -4.98621,-7.90573 -11.06354,-7.90573c-6.30667,0 -10.43646,2.91593 -10.43646,7.5026c0,3.66933 2.8595,5.79918 9.85417,7.28985l7.28985,1.54531c12.04,2.58 17.25599,7.74269 17.25599,17.08802c-0.05733,10.37733 -6.94136,17.31646 -18.46536,19.03646v9.05911h-11.46667v-9.05911c-11.06533,-1.60533 -18.06403,-8.15029 -18.46536,-17.78229h12.16094c0.57333,4.87333 5.50086,7.97292 12.55286,7.97292c6.536,0 11.11953,-3.15244 11.11953,-7.68177c0,-3.84133 -2.97327,-6.02179 -10.36927,-7.56979l-7.80495,-1.71328c-10.95067,-2.236 -16.28177,-7.97202 -16.28177,-17.08802c0,-9.632 6.59602,-16.39554 17.08802,-18.23021zM149.07786,85.95521c-9.51733,0.05733 -17.14401,7.68266 -17.14401,17.2c0,9.45999 7.62667,17.14267 17.14401,17.2h0.05599c9.51733,0 17.2,-7.74001 17.2,-17.2c0,-9.51734 -7.68267,-17.2 -17.2,-17.2zM143.40052,131.82188c-0.74533,0 -1.4844,0.0645 -2.1724,0.17917c-0.68799,0.11466 -1.38361,0.23112 -2.07161,0.40312v0.05599c-7.224,1.892 -12.66932,8.48757 -12.95599,16.6289c-0.05733,0.22933 -0.05599,0.50839 -0.05599,0.79505v22.0711h45.92266v-22.0711c0,-8.428 -5.55865,-15.47462 -13.01198,-17.42396v-0.05599c-0.68801,-0.172 -1.37242,-0.28846 -2.06042,-0.40312c-0.688,-0.11467 -1.38227,-0.17917 -2.1276,-0.17917h-5.78933z"></path></g></g></svg>