<!-- <svg xmlns="http://www.w3.org/2000/svg" x="0px" y="0px"
width="48" height="48"
viewBox="0 0 172 172"
style=" fill:#000000;"><g fill="none" fill-rule="nonzero" stroke="none" stroke-width="1" stroke-linecap="butt" stroke-linejoin="miter" stroke-miterlimit="10" stroke-dasharray="" stroke-dashoffset="0" font-family="none" font-weight="none" font-size="none" text-anchor="none" style="mix-blend-mode: normal"><path d="M0,172v-172h172v172z" fill="none"></path><g fill="#009ed5"><path d="M43,129v-86l-43,43z"></path><path d="M129,129v-86l43,43z"></path><path d="M43,43h86l-43,43z"></path><path d="M129,129h-86l43,-43z"></path></g></g></svg> -->


<!-- <svg xmlns="http://www.w3.org/2000/svg" x="0px" y="0px"
width="32" height="32"
viewBox="0 0 172 172"
style=" fill:#000000;"><g fill="none" fill-rule="nonzero" stroke="none" stroke-width="1" stroke-linecap="butt" stroke-linejoin="miter" stroke-miterlimit="10" stroke-dasharray="" stroke-dashoffset="0" font-family="none" font-weight="none" font-size="none" text-anchor="none" style="mix-blend-mode: normal"><path d="M0,172v-172h172v172z" fill="none"></path><g fill="#d451d5"><path d="M86,20.9751l-64.5,29.31055v19.58936h16.125v59.125h-10.75v10.75h-5.375v10.75h129v-10.75h-5.375v-10.75h-10.75v-59.125h16.125v-19.58936zM86,32.7749l53.75,24.43945v1.91065h-26.875v10.75h10.75v59.125h-75.25v-59.125h10.75v-10.75h-26.875v-1.91065zM80.625,53.75v6.38281c-6.2206,2.24335 -10.75,8.16663 -10.75,15.11719c0,8.84171 7.28329,16.125 16.125,16.125c3.03704,0 5.375,2.33796 5.375,5.375c0,3.03704 -2.33796,5.375 -5.375,5.375c-3.03704,0 -5.375,-2.33796 -5.375,-5.375h-10.75c0,6.95056 4.5294,12.87383 10.75,15.11719v6.38281h10.75v-6.38281c6.2206,-2.24335 10.75,-8.16663 10.75,-15.11719c0,-8.84171 -7.28329,-16.125 -16.125,-16.125c-3.03704,0 -5.375,-2.33796 -5.375,-5.375c0,-3.03704 2.33796,-5.375 5.375,-5.375c3.03704,0 5.375,2.33796 5.375,5.375h10.75c0,-6.95056 -4.5294,-12.87383 -10.75,-15.11719v-6.38281z"></path></g></g></svg> -->

<svg
      xmlns="http://www.w3.org/2000/svg"
      x="0px"
      y="0px"
      width="48"
      height="48"
      viewBox="0 0 172 172"
      style="fill: #000000"
    >
      <defs>
        <linearGradient
          x1="63.56117"
          y1="26.144"
          x2="135.96958"
          y2="225.08708"
          gradientUnits="userSpaceOnUse"
          id="color-1_rCigw8Fdv69u_gr1"
        >
          <stop offset="0.002" stop-color="#427fdb"></stop>
          <stop offset="0.397" stop-color="#2668cb"></stop>
          <stop offset="0.763" stop-color="#1358bf"></stop>
          <stop offset="1" stop-color="#0c52bb"></stop>
        </linearGradient>
        <linearGradient
          x1="86"
          y1="12.814"
          x2="86"
          y2="35.733"
          gradientUnits="userSpaceOnUse"
          id="color-2_rCigw8Fdv69u_gr2"
        >
          <stop offset="0" stop-color="#32bdef"></stop>
          <stop offset="1" stop-color="#1ea2e4"></stop>
        </linearGradient>
      </defs>
      <g
        fill="none"
        fill-rule="nonzero"
        stroke="none"
        stroke-width="1"
        stroke-linecap="butt"
        stroke-linejoin="miter"
        stroke-miterlimit="10"
        stroke-dasharray=""
        stroke-dashoffset="0"
        font-family="none"
        font-weight="none"
        font-size="none"
        text-anchor="none"
        style="mix-blend-mode: normal"
      >
        <path d="M0,172v-172h172v172z" fill="none"></path>
        <g>
          <rect
            x="12"
            y="13"
            transform="scale(3.58333,3.58333)"
            width="24"
            height="23"
            fill="url(#color-1_rCigw8Fdv69u_gr1)"
          ></rect>
          <path
            d="M86,25.08333l-64.5,25.08333h125.41667z"
            fill="#50e6ff"
          ></path>
          <path
            d="M3.58333,150.5h164.83333v-7.16667c-0.00071,-1.97873 -1.60461,-3.58262 -3.58333,-3.58333h-157.66667c-1.97873,0.00071 -3.58262,1.60461 -3.58333,3.58333z"
            fill="#42a4ed"
          ></path>
          <path
            d="M21.5,150.5h129v-7.16667c-0.00071,-1.97873 -1.60461,-3.58262 -3.58333,-3.58333h-121.83333c-1.97873,0.00071 -3.58262,1.60461 -3.58333,3.58333z"
            fill="#35c1f1"
          ></path>
          <path
            d="M10.75,139.75h150.5v-7.16667c-0.00071,-1.97873 -1.60461,-3.58262 -3.58333,-3.58333h-143.33333c-1.97873,0.00071 -3.58262,1.60461 -3.58333,3.58333z"
            fill="#35c1f1"
          ></path>
          <path
            d="M28.66667,139.75h114.66667v-7.16667c-0.00071,-1.97873 -1.60461,-3.58262 -3.58333,-3.58333h-107.5c-1.97873,0.00071 -3.58262,1.60461 -3.58333,3.58333z"
            fill="#50e6ff"
          ></path>
          <path
            d="M146.91667,53.75h-125.41667c-1.73606,-0.00031 -3.22205,-1.24535 -3.52631,-2.95454c-0.30427,-1.70919 0.66077,-3.39056 2.29006,-3.98996l64.5,-25.08512c0.79921,-0.29383 1.67687,-0.29383 2.47608,0l60.91667,25.08513c1.62993,0.59964 2.59499,2.28203 2.28975,3.99173c-0.30524,1.7097 -1.79285,2.9542 -3.52958,2.95277zM38.00842,46.58154h95.98317l-47.99158,-17.68375z"
            fill="#35c1f1"
          ></path>
          <circle
            cx="24"
            cy="10.999"
            transform="scale(3.58333,3.58333)"
            r="1"
            fill="url(#color-2_rCigw8Fdv69u_gr2)"
          ></circle>
          <rect
            x="34"
            y="15.5"
            transform="scale(3.58333,3.58333)"
            width="4"
            height="18.5"
            fill="#35c1f1"
          ></rect>
          <rect
            x="9"
            y="15.5"
            transform="scale(3.58333,3.58333)"
            width="4"
            height="18.5"
            fill="#35c1f1"
          ></rect>
          <path
            d="M136.16667,121.83333h-14.33333c-1.97873,0.00071 -3.58262,1.60461 -3.58333,3.58333v3.58333h21.5v-3.58333c-0.00071,-1.97873 -1.60461,-3.58262 -3.58333,-3.58333z"
            fill="#35c1f1"
          ></path>
          <path
            d="M46.58333,121.83333h-14.33333c-1.97873,0.00071 -3.58262,1.60461 -3.58333,3.58333v3.58333h21.5v-3.58333c-0.00071,-1.97873 -1.60461,-3.58262 -3.58333,-3.58333z"
            fill="#35c1f1"
          ></path>
          <path
            d="M139.75,53.75h-21.5v3.58333c0.00071,1.97873 1.60461,3.58262 3.58333,3.58333h14.33333c1.97873,-0.00071 3.58262,-1.60461 3.58333,-3.58333z"
            fill="#50e6ff"
          ></path>
          <path
            d="M50.16667,53.75h-21.5v3.58333c0.00071,1.97873 1.60461,3.58262 3.58333,3.58333h14.33333c1.97873,-0.00071 3.58262,-1.60461 3.58333,-3.58333z"
            fill="#50e6ff"
          ></path>
          <path
            d="M85.1567,60.91667c0.28851,-0.00002 0.56521,0.11458 0.76922,0.31858c0.20401,0.204 0.31862,0.4807 0.31861,0.76921v5.01391c3.1914,-0.01192 6.36273,0.50495 9.38518,1.52962c1.05456,0.50383 1.65928,1.63459 1.49282,2.79142v4.55535c0.00068,0.37298 -0.1478,0.73074 -0.41238,0.99363c-0.26458,0.26289 -0.6233,0.40906 -0.99626,0.40598c-0.21556,-0.00049 -0.42834,-0.04868 -0.62307,-0.14111c-3.45274,-1.61282 -7.21116,-2.46654 -11.02183,-2.5036c-1.697,0 -7.12596,0.25442 -7.12596,5.08421c0,9.25127 23.11486,6.192 23.11486,21.84966c0,5.99459 -3.66503,12.7858 -13.81017,13.63261v5.52937c-0.00116,0.60022 -0.48739,1.08655 -1.08761,1.08783h-2.17562c-0.60029,-0.00116 -1.08663,-0.4875 -1.08779,-1.08779v-5.5394c-3.96236,-0.33327 -7.85184,-1.26192 -11.53737,-2.75465c-0.91561,-0.38287 -1.51291,-1.27685 -1.51618,-2.26929v-5.18462c-0.00149,-0.77592 0.62456,-1.40706 1.40047,-1.41183c0.21848,0.00045 0.4337,0.05296 0.62784,0.15319c4.09366,2.08719 8.60691,3.22006 13.201,3.31358c5.40883,0 7.12585,-2.31616 7.12585,-5.00387c0,-8.5484 -23.11483,-5.32842 -23.11483,-21.55844c0,-8.90322 7.02882,-12.72893 13.81017,-13.39163v-5.0941c-0.00002,-0.60067 0.48684,-1.08765 1.08751,-1.08779h2.17555M85.1567,57.33333h-2.17555c-2.57856,0.0029 -4.66816,2.09256 -4.67098,4.67113v2.05225c-8.02221,1.32953 -13.88186,8.30231 -13.81017,16.43363c0,11.89885 10.00671,15.60409 16.62835,18.05595c2.58301,0.95643 6.48648,2.4018 6.48648,3.50249c0,0.3885 0,1.42054 -3.54252,1.42054c-4.02465,-0.10341 -7.9759,-1.10073 -11.56754,-2.9197c-1.54609,-0.787 -3.39018,-0.71342 -4.86865,0.19425c-1.47847,0.90767 -2.3786,2.51884 -2.37645,4.2537v5.18462c0.00321,2.42767 1.45683,4.61846 3.69241,5.56492c3.00802,1.23555 6.14949,2.1172 9.36114,2.62719v2.37134c0.00288,2.57863 2.09263,4.66827 4.67127,4.67102h2.17562c2.57862,-0.00282 4.6683,-2.0925 4.67113,-4.67113v-2.44179c8.10265,-1.39501 13.97099,-8.4999 13.81017,-16.72019c0,-11.30542 -9.68769,-15.06731 -16.09816,-17.55672c-3.44964,-1.33963 -7.0167,-2.72484 -7.0167,-4.29283c0,-1.24048 1.92647,-1.50088 3.54263,-1.50088c3.28517,0.03493 6.52475,0.77307 9.50078,2.16476c1.54604,0.73126 3.35863,0.62136 4.80499,-0.29134c1.44636,-0.9127 2.32571,-2.50151 2.33107,-4.21176v-4.55535c0.17473,-2.63775 -1.33907,-5.09712 -3.77275,-6.12933c-2.288,-0.83369 -4.67793,-1.35521 -7.10525,-1.55047v-1.65518c-0.00282,-2.57869 -2.09261,-4.6684 -4.6713,-4.67113z"
            fill="#000000"
            opacity="0.05"
          ></path>
          <path
            d="M85.1567,60.91667c0.28851,-0.00002 0.56521,0.11458 0.76922,0.31858c0.20401,0.204 0.31862,0.4807 0.31861,0.76921v5.01391c3.1914,-0.01192 6.36273,0.50495 9.38518,1.52962c1.05456,0.50383 1.65928,1.63459 1.49282,2.79142v4.55535c0.00068,0.37298 -0.1478,0.73074 -0.41238,0.99363c-0.26458,0.26289 -0.6233,0.40906 -0.99626,0.40598c-0.21556,-0.00049 -0.42834,-0.04868 -0.62307,-0.14111c-3.45274,-1.61282 -7.21116,-2.46654 -11.02183,-2.5036c-1.697,0 -7.12596,0.25442 -7.12596,5.08421c0,9.25127 23.11486,6.192 23.11486,21.84966c0,5.99459 -3.66503,12.7858 -13.81017,13.63261v5.52937c-0.00116,0.60022 -0.48739,1.08655 -1.08761,1.08783h-2.17562c-0.60029,-0.00116 -1.08663,-0.4875 -1.08779,-1.08779v-5.5394c-3.96236,-0.33327 -7.85184,-1.26192 -11.53737,-2.75465c-0.91561,-0.38287 -1.51291,-1.27685 -1.51618,-2.26929v-5.18462c-0.00149,-0.77592 0.62456,-1.40706 1.40047,-1.41183c0.21848,0.00045 0.4337,0.05296 0.62784,0.15319c4.09366,2.08719 8.60691,3.22006 13.201,3.31358c5.40883,0 7.12585,-2.31616 7.12585,-5.00387c0,-8.5484 -23.11483,-5.32842 -23.11483,-21.55844c0,-8.90322 7.02882,-12.72893 13.81017,-13.39163v-5.0941c-0.00002,-0.60067 0.48684,-1.08765 1.08751,-1.08779h2.17555M85.1567,59.125h-2.17555c-1.58953,0.00182 -2.87764,1.28993 -2.87946,2.87946v3.526c-6.94794,1.17329 -13.81002,5.60946 -13.81002,14.95988c0,10.65171 8.93486,13.96009 15.45882,16.37583c4.76365,1.76386 7.65601,2.99287 7.65601,5.18268c0,0.87853 0,3.21221 -5.33419,3.21221c-4.30821,-0.10684 -8.53859,-1.1715 -12.38414,-3.11671c-0.99064,-0.50247 -2.17125,-0.45389 -3.11726,0.12826c-0.94602,0.58215 -1.52143,1.61419 -1.51932,2.72497v5.18462c0.00386,1.70986 1.02913,3.25192 2.60433,3.91705c3.34942,1.35927 6.86232,2.27441 10.44921,2.72211v3.92418c0.00182,1.58953 1.28993,2.87764 2.87946,2.87946h2.17562c1.58954,-0.00178 2.87768,-1.28991 2.87946,-2.87946v-3.93604c7.88561,-0.66504 13.91543,-7.313 13.81017,-15.22591c0,-10.07902 -8.29223,-13.29915 -14.95508,-15.88657c-5.05909,-1.96463 -8.15979,-3.30383 -8.15979,-5.9631c0,-2.18476 1.79475,-3.29255 5.33429,-3.29255c3.54791,0.03619 7.04688,0.83211 10.26134,2.33418c0.43251,0.20465 0.90507,0.31072 1.38356,0.31053c1.76416,0.00048 3.19581,-1.42713 3.20031,-3.19128v-4.55538c0.19592,-1.90337 -0.87173,-3.71214 -2.63278,-4.46039c-2.65357,-0.9357 -5.43346,-1.46443 -8.24525,-1.56825v-3.30634c-0.00182,-1.58964 -1.29011,-2.8778 -2.87975,-2.87946z"
            fill="#000000"
            opacity="0.07"
          ></path>
          <path
            d="M100.05788,101.58356c0,-15.65759 -23.11486,-12.59839 -23.11486,-21.84966c0,-4.82983 5.42896,-5.08421 7.12592,-5.08421c3.81069,0.03706 7.56914,0.89078 11.0219,2.5036c0.43589,0.21442 0.95148,0.18929 1.36445,-0.06651c0.41297,-0.2558 0.66512,-0.70622 0.6673,-1.19199v-4.55535c0.16646,-1.15682 -0.43825,-2.28758 -1.49282,-2.79142c-3.02245,-1.02467 -6.19378,-1.54154 -9.38518,-1.52962v-5.01394c0.00001,-0.28852 -0.1146,-0.56522 -0.31862,-0.76922c-0.20402,-0.204 -0.48073,-0.3186 -0.76924,-0.31857h-2.17558c-0.2885,-0.00001 -0.56519,0.11459 -0.7692,0.3186c-0.204,0.204 -0.31861,0.48069 -0.3186,0.7692v5.09425c-6.78117,0.6627 -13.81002,4.48841 -13.81002,13.39163c0,16.22992 23.11486,13.01004 23.11486,21.55848c0,2.68768 -1.71706,5.00384 -7.12592,5.00384c-4.59403,-0.09354 -9.10721,-1.22641 -13.20082,-3.31358c-0.43518,-0.21855 -0.95266,-0.19527 -1.36645,0.06148c-0.4138,0.25674 -0.66446,0.71006 -0.66189,1.19703v5.18462c0.00328,0.99245 0.60061,1.88644 1.51625,2.26929c3.6855,1.49276 7.57498,2.42141 11.53733,2.75465v5.5394c0.00116,0.60029 0.4875,1.08663 1.08779,1.08779h2.17562c0.60029,-0.00116 1.08663,-0.4875 1.08779,-1.08779v-5.52937c10.14495,-0.84692 13.80999,-7.63802 13.80999,-13.63261z"
            fill="#ffffff"
          ></path>
        </g>
      </g>
    </svg>