<svg xmlns="http://www.w3.org/2000/svg" x="0px" y="0px" width="30" height="30" viewBox="0 0 172 172"
        style=" fill:#000000;">
        <g fill="none" fill-rule="nonzero" stroke="none" stroke-width="1" stroke-linecap="butt" stroke-linejoin="miter"
            stroke-miterlimit="10" stroke-dasharray="" stroke-dashoffset="0" font-family="none" font-weight="none"
            font-size="none" text-anchor="none" style="mix-blend-mode: normal">
            <path d="M0,172v-172h172v172z" fill="none"></path>
            <g fill="#000000">
                <path
                    d="M86,0l-22.93333,22.93333h17.2v17.65911c-19.43965,2.79039 -34.4,19.46252 -34.4,39.67422c0,22.16507 17.96827,40.13333 40.13333,40.13333c22.16507,0 40.13333,-17.96827 40.13333,-40.13333c0,-20.2117 -14.96035,-36.88383 -34.4,-39.67422v-17.65911h17.2zM72.5625,59.47214h26.8862v8.00651h-18.95808l-0.76146,9.38386h0.5375c1.5652,-2.51693 4.42121,-4.14323 8.56641,-4.14323c7.6712,0 13.15755,5.68334 13.15755,13.54948c-0.00573,8.74333 -6.44005,14.70286 -16.18099,14.70286c-9.37973,0 -15.64573,-5.52227 -15.78906,-12.85521h9.31667c0.47587,2.96987 3.16238,4.92708 6.55078,4.92708c3.7496,0 6.4164,-2.56692 6.4164,-6.51719c0,-4.03053 -2.6892,-6.71875 -6.4388,-6.71875c-2.85519,0 -4.87458,1.28471 -6.15885,3.32578h-9.04792zM22.84375,108.85495c-3.16203,0.04943 -5.68705,2.6496 -5.64375,5.81172v22.93333c0,9.43116 7.76884,17.2 17.2,17.2h103.2c9.43116,0 17.2,-7.76884 17.2,-17.2v-22.93333c0.02924,-2.06765 -1.05709,-3.99087 -2.843,-5.03322c-1.78592,-1.04236 -3.99474,-1.04236 -5.78066,0c-1.78592,1.04236 -2.87225,2.96558 -2.843,5.03322v22.93333c0,3.23951 -2.49383,5.73333 -5.73333,5.73333h-103.2c-3.23951,0 -5.73333,-2.49383 -5.73333,-5.73333v-22.93333c0.02122,-1.54972 -0.58581,-3.04203 -1.68279,-4.1369c-1.09698,-1.09487 -2.59045,-1.69903 -4.14013,-1.67482z">
                </path>
        </g>
    </g>
</svg>