<svg xmlns="http://www.w3.org/2000/svg" x="0px" y="0px"
width="50" height="50"
viewBox="0 0 172 172"
style=" fill:#000000;"><g fill="none" fill-rule="nonzero" stroke="none" stroke-width="1" stroke-linecap="butt" stroke-linejoin="miter" stroke-miterlimit="10" stroke-dasharray="" stroke-dashoffset="0" font-family="none" font-weight="none" font-size="none" text-anchor="none" style="mix-blend-mode: normal"><path d="M0,172v-172h172v172z" fill="none"></path><g fill="#0056ff"><path d="M41.28,0v96.32c-0.01344,1.23625 0.63156,2.39188 1.70656,3.02344c1.075,0.61813 2.39187,0.61813 3.46687,0c1.075,-0.63156 1.72,-1.78719 1.70656,-3.02344v-60.5225c0,-4.81062 1.98875,-6.59781 5.0525,-8.385c1.53188,-0.90031 3.31906,-1.59906 5.0525,-2.365c1.73344,-0.76594 3.48031,-1.43781 5.0525,-3.01c1.57219,-1.57219 2.28438,-3.37281 3.01,-5.16c0.72563,-1.78719 1.31688,-3.655 2.0425,-5.2675c0.72563,-1.6125 1.58563,-2.88906 2.365,-3.655c0.77938,-0.76594 1.3975,-1.075 2.58,-1.075h25.37c1.1825,0 1.80063,0.30906 2.58,1.075c0.77938,0.76594 1.63938,2.0425 2.365,3.655c0.72563,1.6125 1.31688,3.48031 2.0425,5.2675c0.72563,1.78719 1.43781,3.58781 3.01,5.16c1.57219,1.57219 3.31906,2.24406 5.0525,3.01c1.73344,0.76594 3.52063,1.46469 5.0525,2.365c3.06375,1.78719 5.0525,3.57438 5.0525,8.385v60.5225c-0.01344,1.23625 0.63156,2.39188 1.70656,3.02344c1.075,0.61813 2.39187,0.61813 3.46687,0c1.075,-0.63156 1.72,-1.78719 1.70656,-3.02344v-96.32zM48.16,6.88h14.9425c-0.34937,0.645 -0.67187,1.29 -0.9675,1.935c-0.90031,2.00219 -1.62594,3.92375 -2.2575,5.4825c-0.63156,1.55875 -1.24969,2.75469 -1.3975,2.9025c-0.14781,0.14781 -1.29,0.79281 -2.9025,1.505c-1.6125,0.71219 -3.72219,1.58563 -5.805,2.795c-0.55094,0.3225 -1.06156,0.67188 -1.6125,1.075zM108.8975,6.88h14.9425v15.695c-0.55094,-0.40312 -1.06156,-0.7525 -1.6125,-1.075c-2.08281,-1.20937 -4.1925,-2.08281 -5.805,-2.795c-1.6125,-0.71219 -2.75469,-1.35719 -2.9025,-1.505c-0.14781,-0.14781 -0.76594,-1.34375 -1.3975,-2.9025c-0.63156,-1.55875 -1.35719,-3.48031 -2.2575,-5.4825c-0.29562,-0.645 -0.61812,-1.29 -0.9675,-1.935zM55.04,10.32c-1.89469,0 -3.44,1.54531 -3.44,3.44c0,1.89469 1.54531,3.44 3.44,3.44c1.89469,0 3.44,-1.54531 3.44,-3.44c0,-1.89469 -1.54531,-3.44 -3.44,-3.44zM116.96,10.32c-1.89469,0 -3.44,1.54531 -3.44,3.44c0,1.89469 1.54531,3.44 3.44,3.44c1.89469,0 3.44,-1.54531 3.44,-3.44c0,-1.89469 -1.54531,-3.44 -3.44,-3.44zM86,13.76c-7.56531,0 -13.76,6.19469 -13.76,13.76c0,7.56531 6.19469,13.76 13.76,13.76c7.56531,0 13.76,-6.19469 13.76,-13.76c0,-7.56531 -6.19469,-13.76 -13.76,-13.76zM86,20.64c3.84313,0 6.88,3.03688 6.88,6.88c0,3.84313 -3.03687,6.88 -6.88,6.88c-3.84312,0 -6.88,-3.03687 -6.88,-6.88c0,-3.84312 3.03688,-6.88 6.88,-6.88zM86,24.08c-1.89469,0 -3.44,1.54531 -3.44,3.44c0,1.89469 1.54531,3.44 3.44,3.44c1.89469,0 3.44,-1.54531 3.44,-3.44c0,-1.89469 -1.54531,-3.44 -3.44,-3.44zM137.0625,36.765c-1.35719,0.16125 -2.4725,1.11531 -2.87562,2.41875c-0.38969,1.30344 0.01344,2.71438 1.04812,3.60125l26.5525,24.725c0,0.04031 0,0.06719 0,0.1075c1.94844,1.69313 3.3325,4.67625 3.3325,7.4175v2.4725l-49.235,38.7c-4.75687,-3.73562 -12.71187,-9.90344 -13.76,-10.75l-0.215,-0.1075c-5.95281,-4.75687 -12.30875,-5.59 -15.91,-5.59c-3.85656,0 -9.94375,1.1825 -15.8025,5.4825l-0.1075,0.1075c-1.00781,0.80625 -9.12406,7.16219 -13.975,10.965l-49.235,-38.8075v-2.4725c0,-3.35937 0.92719,-5.60344 3.3325,-7.74l26.445,-23.435c1.04813,-0.76594 1.57219,-2.05594 1.35719,-3.34594c-0.215,-1.27656 -1.14219,-2.32469 -2.37844,-2.71438c-1.23625,-0.37625 -2.59344,-0.02687 -3.49375,0.90031l-26.5525,23.435c-3.77594,3.35938 -5.59,8.00875 -5.59,12.9v93.525c0,1.89469 1.54531,3.44 3.44,3.44h165.12c1.89469,0 3.44,-1.54531 3.44,-3.44v-93.525c0,-4.79719 -2.17687,-9.3525 -5.6975,-12.47v-0.1075l-26.3375,-24.725c-0.76594,-0.7525 -1.84094,-1.11531 -2.9025,-0.9675zM86,51.6c-16.81031,0 -30.96,12.30875 -30.96,27.8425c0,7.49813 3.30563,13.94813 8.2775,18.92c0.83313,1.02125 2.16344,1.49156 3.45344,1.19594c1.27656,-0.29562 2.28438,-1.30344 2.58,-2.58c0.29563,-1.29 -0.17469,-2.62031 -1.19594,-3.45344c-0.38969,-0.38969 -0.72562,-0.77937 -1.075,-1.1825c1.00781,-0.60469 1.72,-1.65281 1.72,-2.9025c0,-1.89469 -1.54531,-3.44 -3.44,-3.44c-0.72562,0 -1.38406,0.25531 -1.935,0.645c-0.95406,-2.21719 -1.505,-4.58219 -1.505,-7.2025c0,-2.71437 0.60469,-5.33469 1.72,-7.74c0.51063,0.30906 1.075,0.5375 1.72,0.5375c1.89469,0 3.44,-1.54531 3.44,-3.44c0,-1.08844 -0.51062,-2.05594 -1.29,-2.6875c1.80063,-1.89469 3.99094,-3.48031 6.45,-4.73c0.51063,0.30906 1.075,0.5375 1.72,0.5375c1.54531,0 2.795,-1.075 3.225,-2.4725c2.24406,-0.60469 4.60906,-0.9675 7.095,-0.9675c2.48594,0 4.85094,0.36281 7.095,0.9675c0.43,1.3975 1.67969,2.4725 3.225,2.4725c0.645,0 1.20938,-0.22844 1.72,-0.5375c2.45906,1.24969 4.64938,2.83531 6.45,4.73c-0.77937,0.63156 -1.29,1.59906 -1.29,2.6875c0,1.89469 1.54531,3.44 3.44,3.44c0.645,0 1.20938,-0.22844 1.72,-0.5375c1.11531,2.40531 1.72,5.02563 1.72,7.74c0,2.4725 -0.52406,4.90469 -1.505,7.2025c-0.55094,-0.38969 -1.20937,-0.645 -1.935,-0.645c-1.89469,0 -3.44,1.54531 -3.44,3.44c0,1.24969 0.71219,2.29781 1.72,2.9025c-0.34937,0.40313 -0.69875,0.80625 -1.075,1.1825c-1.02125,0.83313 -1.49156,2.16344 -1.19594,3.45344c0.29562,1.27656 1.30344,2.28438 2.58,2.58c1.29,0.29563 2.62031,-0.17469 3.45344,-1.19594c5.03906,-5.03906 8.2775,-11.70406 8.2775,-18.92c0,-15.53375 -14.14969,-27.8425 -30.96,-27.8425zM86,65.36c-1.89469,0 -3.44,1.54531 -3.44,3.44c0,1.89469 1.54531,3.44 3.44,3.44c1.89469,0 3.44,-1.54531 3.44,-3.44c0,-1.89469 -1.54531,-3.44 -3.44,-3.44zM75.68,75.68c-1.89469,0 -3.44,1.54531 -3.44,3.44c0,1.89469 1.54531,3.44 3.44,3.44c1.89469,0 3.44,-1.54531 3.44,-3.44c0,-1.89469 -1.54531,-3.44 -3.44,-3.44zM96.32,75.68c-1.89469,0 -3.44,1.54531 -3.44,3.44c0,1.89469 1.54531,3.44 3.44,3.44c1.89469,0 3.44,-1.54531 3.44,-3.44c0,-1.89469 -1.54531,-3.44 -3.44,-3.44zM86,86c-1.89469,0 -3.44,1.54531 -3.44,3.44c0,1.89469 1.54531,3.44 3.44,3.44c1.89469,0 3.44,-1.54531 3.44,-3.44c0,-1.89469 -1.54531,-3.44 -3.44,-3.44zM6.88,86.3225l43.645,34.4c-18.14062,14.21688 -38.55219,30.19406 -43.645,34.185zM165.12,86.3225v68.585c-5.10625,-4.00437 -25.54469,-20.08906 -43.645,-34.2925zM86,106.64c2.58,0 7.24281,0.59125 11.61,4.085c5.32125,4.25969 65.77656,51.53281 67.51,52.89v1.505h-158.24v-1.505c1.72,-1.34375 61.89313,-48.38844 67.4025,-52.7825c0.01344,-0.01344 0.09406,-0.09406 0.1075,-0.1075c4.42094,-3.19812 9.29875,-4.085 11.61,-4.085z"></path></g></g></svg>