<svg
      xmlns="http://www.w3.org/2000/svg"
      x="0px"
      y="0px"
      width="24"
      height="24"
      viewBox="0 0 172 172"
      style="fill: #000000"
    >
      <g
        fill="none"
        fill-rule="nonzero"
        stroke="none"
        stroke-width="1"
        stroke-linecap="butt"
        stroke-linejoin="miter"
        stroke-miterlimit="10"
        stroke-dasharray=""
        stroke-dashoffset="0"
        font-family="none"
        font-weight="none"
        font-size="none"
        text-anchor="none"
        style="mix-blend-mode: normal"
      >
        <path d="M0,172v-172h172v172z" fill="none"></path>
        <g id="original-icon" fill="#fa0de8">
          <path
            d="M86,6.88c-25.07002,0 -47.42104,11.70318 -61.92,29.92531v-23.04531c0.01273,-0.92983 -0.35149,-1.82522 -1.00967,-2.48214c-0.65819,-0.65692 -1.55427,-1.01942 -2.48408,-1.00489c-1.89722,0.02966 -3.41223,1.58976 -3.38625,3.48703v34.4h34.4c1.24059,0.01754 2.39452,-0.63425 3.01993,-1.7058c0.62541,-1.07155 0.62541,-2.39684 0,-3.46839c-0.62541,-1.07155 -1.77935,-1.72335 -3.01993,-1.7058h-22.29281c13.22775,-16.75035 33.66997,-27.52 56.69281,-27.52c39.9368,0 72.24,32.3032 72.24,72.24c0,39.9368 -32.3032,72.24 -72.24,72.24h-0.0336h-3.44v3.1511c-0.01583,0.19003 -0.01583,0.38106 0,0.57109v3.15781h3.44c0.0112,0.00005 0.0224,0.00005 0.0336,0h3.44v-0.08735c42.06034,-1.80767 75.68,-36.53199 75.68,-79.03265c0,-43.6552 -35.4648,-79.12 -79.12,-79.12zM82.56,37.84v10.5014c-5.95808,0.57792 -10.79676,2.68627 -14.39156,6.32235c-6.28144,6.35368 -6.25188,14.96179 -6.24844,15.28515c0,14.79888 12.93854,17.6766 23.33422,19.98828c11.1284,2.46648 17.94578,4.43233 17.94578,13.26281c0,13.5192 -16.50512,13.75656 -17.2,13.76c-16.54296,0 -17.1828,-12.37647 -17.2,-13.78687l-3.44,0.02687h-3.44c0,6.68736 4.41696,18.95483 20.64,20.47875v10.48125h6.88v-10.54172c8.59312,-1.05264 20.64,-6.13884 20.64,-20.41828c0,-14.79888 -12.93854,-17.6766 -23.33422,-19.98828c-11.1284,-2.46648 -17.94578,-4.43513 -17.94578,-13.28969c0,-0.03784 0.01984,-3.94025 2.1836,-7.67953c2.76232,-4.77816 7.81648,-7.2025 15.0164,-7.2025c13.0892,0 13.72904,12.40023 13.76,13.80031l6.88,-0.08735c-0.08256,-6.58416 -3.89408,-18.57262 -17.2,-20.3511v-10.56187zM6.88,82.56v3.44v0.04031v3.44h6.88v-3.44v-0.04031v-3.44zM14.09594,95.02328l-6.72547,1.45797l0.72562,3.35938l0.01344,0.06719l0.72562,3.35937l6.72547,-1.45125l-0.72563,-3.36609l-0.01344,-0.06047zM16.80359,107.37906l-6.38953,2.55312l1.26984,3.19141l0.02688,0.06719l1.27656,3.1914l6.38953,-2.5464l-1.27656,-3.19813l-0.02688,-0.06047zM21.64109,119.06969l-5.89234,3.55422l1.78047,2.94953l0.03359,0.05375l1.78047,2.94281l5.88563,-3.55422l-1.77375,-2.94281l-0.03359,-0.06047zM28.44047,129.73235l-5.24062,4.45453l2.22391,2.62031l0.04703,0.05375l2.22391,2.62031l5.24734,-4.45453l-2.23062,-2.62031l-0.04031,-0.05375zM36.98,139.05797l-4.46797,5.2339l2.62031,2.23063l0.04703,0.04703l2.62031,2.23062l4.46797,-5.2339l-2.62031,-2.23062l-0.04703,-0.04703zM46.99094,146.7711l-3.56765,5.8789l2.94281,1.78719l0.05375,0.0336l2.94281,1.78047l3.56766,-5.8789l-2.94281,-1.78719l-0.05375,-0.03359zM58.17094,152.62313l-2.55984,6.38953l3.1914,1.27656l0.06047,0.02688l3.1914,1.28328l2.55985,-6.38953l-3.1914,-1.27656l-0.06047,-0.02688zM70.19078,156.43937l-1.47141,6.71875l3.35938,0.73906l0.06719,0.01344l3.35938,0.73234l1.4714,-6.71875l-3.35937,-0.73906l-0.06719,-0.01344z"
          ></path>
        </g>
      </g>
    </svg>